<svg width="369" height="90" viewBox="0 0 369 90" fill="none" xmlns="http://www.w3.org/2000/svg">
<path fill-rule="evenodd" clip-rule="evenodd" d="M1 1H270V18H271V1V0H270H1H0V1V89V90H1H270H271V89V75H270V89H1V1Z" fill="white"/>
<path d="M25.4062 22.1562H36.375L51.7188 59.4062L67.0625 22.1562H78.0312L56.625 71H46.8125L25.4062 22.1562ZM85.375 22.1562H126.969V30.8438H95.2812V40.5938H123.344V48.75H95.2812V62.3438H127.625V71H85.375V22.1562ZM138.562 22.1562H148.469L178.906 38.0938V22.1562H188.812V71H178.906V48.5938L148.469 32.75V71H138.562V22.1562ZM202.625 22.1562H244.219V30.8438H212.531V40.5938H240.594V48.75H212.531V62.3438H244.875V71H202.625V22.1562ZM255.875 22.1562H280.719C284.469 22.1562 287.719 22.5521 290.469 23.3438C293.219 24.1146 295.5 25.2396 297.312 26.7188C299.125 28.1979 300.469 30 301.344 32.125C302.24 34.25 302.688 36.6562 302.688 39.3438C302.688 41.1562 302.469 42.8854 302.031 44.5312C301.594 46.1562 300.917 47.6562 300 49.0312C299.104 50.4062 297.969 51.6354 296.594 52.7188C295.219 53.7812 293.604 54.6667 291.75 55.375L302.375 71H290.25L281.062 57.125H280.781L265.781 57.0938V71H255.875V22.1562ZM280.969 48.5312C282.844 48.5312 284.479 48.3125 285.875 47.875C287.292 47.4375 288.469 46.8229 289.406 46.0312C290.365 45.2396 291.073 44.2812 291.531 43.1562C292.01 42.0104 292.25 40.7396 292.25 39.3438C292.25 36.6146 291.312 34.5104 289.438 33.0312C287.562 31.5312 284.74 30.7812 280.969 30.7812H265.781V48.5312H280.969ZM331.094 22.1562H341.594L365.219 71H354.812L350.906 62.7812H322.375L318.594 71H308.156L331.094 22.1562ZM347 54.625L336.438 32.4375L326.156 54.625H347Z" fill="white"/>
</svg>
